<?xml version="1.0" encoding="iso-8859-1"?>
<!-- Generator: Adobe Illustrator 17.1.0, SVG Export Plug-In . SVG Version: 6.00 Build 0)  -->
<!DOCTYPE svg PUBLIC "-//W3C//DTD SVG 1.1//EN" "http://www.w3.org/Graphics/SVG/1.1/DTD/svg11.dtd">
<svg version="1.1" id="Capa_1" xmlns="http://www.w3.org/2000/svg" xmlns:xlink="http://www.w3.org/1999/xlink" x="0px" y="0px"
	 viewBox="0 0 287 287" style="enable-background:new 0 0 287 287;" xml:space="preserve">
<g>
	<path d="M103.4,85.801H123v54.131c0,4.963,3.911,8.869,8.874,8.869h24.913c4.963,0,8.213-3.906,8.213-8.869V85.801h20.267
		c2.933,0,5.395-1.576,6.586-3.863c1.19-2.288,0.897-5.194-0.786-7.597l-40.341-57.633c-1.55-2.214-3.88-3.51-6.391-3.51
		c-2.511,0-4.841,1.256-6.39,3.469L97.6,74.246c-1.683,2.402-1.977,5.408-0.785,7.695C98.005,84.23,100.467,85.801,103.4,85.801z"/>
	<path d="M287,201.801c0-7.18-5.82-13-13-13H13c-7.18,0-13,5.82-13,13v59c0,7.18,5.82,13,13,13h261c7.18,0,13-5.82,13-13V201.801z
		 M58,246.801H19v-30h39V246.801z M113,246.801H74v-30h39V246.801z"/>
</g>
<g>
</g>
<g>
</g>
<g>
</g>
<g>
</g>
<g>
</g>
<g>
</g>
<g>
</g>
<g>
</g>
<g>
</g>
<g>
</g>
<g>
</g>
<g>
</g>
<g>
</g>
<g>
</g>
<g>
</g>
</svg>
